<?xml version="1.0" encoding="utf-8"?>
<!-- Generator: Adobe Illustrator 27.5.0, SVG Export Plug-In . SVG Version: 6.00 Build 0)  -->
<svg version="1.1" xmlns="http://www.w3.org/2000/svg" xmlns:xlink="http://www.w3.org/1999/xlink" x="0px" y="0px"
	 viewBox="0 0 1700 1270" style="enable-background:new 0 0 1700 1270;" xml:space="preserve">
<g id="background">
	<g>
		<rect style="fill:#0000;" width="1700" height="1270"/>
	</g>
</g>
<g id="shadow">
	<g id="XMLID_4445_" style="opacity:0.05;">
		<path style="fill:#2D2A27;" d="M1317.222,906.896c51.101,3.248,102.38-1.794,153.393,4.179
			c25.09,2.938,50.926,8.001,73.398,20.045c8.29,4.443,22.693,11.372,24.58,21.445c2.026,10.816-8.732,14.647-9.614,24.367
			c-0.596,6.576,7.286,15.918,8.101,23.437c1.716,15.828-6.204,30.157-15.293,42.448c-17.044,23.049-51.535,42.53-59.721,70.981
			c-3.045,10.581-3.801,22.35-8.042,32.172c-23.681,54.844-87.271,39.271-126.218,42.588c-78.144,6.655-156.638,7.926-235.028,8.522
			c-177.825,1.351-355.654-0.905-533.442-4.411c-52.909-1.043-105.852-2.792-158.79-4.033c-30.979-0.726-61.956-1.28-92.923-1.416
			c-46.474-0.205-99.967,11.018-143.911-14.651c-76.77-44.843,22.009-88.572,2.743-138.322c-0.006-0.016-0.012-0.031-0.018-0.047
			c-8.519-21.937-43.674-24.571-59.323-30.049c-7.215-2.526-14.841-5.378-19.892-12.689c-26.816-38.82,30.607-80.075,52.351-85.524
			c44.13-11.059,92.177-5.69,136.876-6.528C643.693,893.087,981.846,885.575,1317.222,906.896z"/>
	</g>
</g>
<g id="object">
	<g>
		<g id="XMLID_4435_">
			<g id="XMLID_4444_">
				<path style="fill:none;" d="M304.997,409.049c-1.167,1.865-1.406,4.92-1.179,8.43
					C304.211,414.669,304.604,411.858,304.997,409.049z"/>
			</g>
			<g id="XMLID_4443_">
				<polygon style="fill:#668778;" points="234.871,1028.589 233.987,1032.261 231.055,1044.449 252.499,1062.502 267.619,1053.247 
					258.363,1038.126 257.418,1037.33 256.669,1038.679 				"/>
			</g>
			<g id="XMLID_4442_">
				<polygon style="fill:#668778;" points="397.224,1030.664 397.897,1040.417 423.773,1051.196 435.416,1037.827 422.046,1026.184 
					420.433,1026.295 420.22,1029.076 				"/>
			</g>
			<path style="fill:#545150;" d="M436.091,821.185l-10.017-124.173c-5.466-0.191-30.227-0.972-47.401-0.15
				c-2.286,0.109-4.444,0.245-6.397,0.417c-12.088,1.061-24.141,2.996-36.025,5.6c-4.891,1.072-9.757,2.245-14.58,3.535
				c-11.067,2.897-22.292,6.719-31.894,13.117c-4.501,2.999-8.31,6.554-12.123,10.142l8.418,134.754l-52.414,163.601l1.214,0.562
				l21.798,10.09l0.748-1.349l103.937-187.423l4.632-22.325l3.384,14.192l27.72,188.898l0.133-0.009l-0.006-0.086l0.006,0.086
				l22.996-1.588l0.212-2.78l0,0L436.091,821.185z"/>
			<g id="XMLID_4441_">
				<path style="fill:#EDD4B9;" d="M339.033,458.525c0.666-3.332,1.365-6.569,4.06-8.407c2.448-1.67,5.717-1.461,8.442-2.624
					c5.134-2.19,6.982-8.389,8.225-13.83c1.081-4.731,2.162-9.461,3.243-14.192c0.487-2.13,0.966-4.325,1.226-6.514
					c-8.202-2.437-16.058-7.396-24.553-8.912c-9.53-1.701-26.872-3.987-34.241,4.4c-0.16,0.183-0.305,0.386-0.44,0.602
					c-0.393,2.81-0.786,5.62-1.179,8.43c0.505,7.824,3.324,17.901,3.347,22.077c-1.164-0.3-2.306-0.741-3.428-1.274
					c2.711,3.782,7.985,5.893,12.688,7.378c-0.664,5.724-0.87,11.501-0.615,17.258c0.277,0.018,0.554,0.037,0.831,0.055
					c7.539-1.503,15.123-2.733,21.72-4.296C338.585,458.624,338.809,458.576,339.033,458.525z"/>
			</g>
			<g id="XMLID_4440_">
				<path style="fill:#41352B;" d="M302.26,428.609c0.519-3.71,1.038-7.42,1.557-11.131c-0.227-3.509,0.012-6.565,1.179-8.43
					c0.234-1.672,0.468-3.344,0.702-5.017c0.396-2.833,0.821-5.751,2.276-8.214c2.553-4.323,7.712-6.344,12.628-7.361
					c12.546-2.595,26.381-0.304,36.428,7.645c2.674,2.116,5.113,4.684,6.364,7.855c1.127,2.858,1.2,5.924,0.835,9.001
					c1.834,0.545,3.685,0.967,5.565,1.192c7.402,0.888,16.686-3.026,22.827-7.035c7.578-4.95,10.736-18.771,15.019-26.342
					c1.174-2.075,2.446-4.081,3.88-5.97c3.107-4.092,6.983-7.639,9.444-12.15c2.461-4.51,3.184-10.541-0.07-14.517
					c-2.1-2.566-5.414-3.776-8.623-4.61c-10.575-2.747-21.889-2.592-32.386,0.442c-9.998,2.89-18.883,7.428-29.152,3.965
					c-9.649-3.254-16.488-1.583-26.339,2.293c-10.659,4.194-25.106,5.566-34.693,11.312c-4.003,2.399-7.142,6.048-9.551,10.045
					c-8.347,13.848-7.795,32.554,1.355,45.886c2.053,2.991,4.481,5.707,7.025,8.293c4.397,4.471,9.521,9.814,15.204,12.518
					c-0.78-1.089-1.36-2.309-1.638-3.701C301.707,432.618,301.983,430.591,302.26,428.609z"/>
			</g>
			<g id="XMLID_4439_">
				<path style="fill:#41352B;" d="M303.818,417.478c-0.519,3.71-1.038,7.42-1.557,11.131c-0.277,1.982-0.554,4.009-0.161,5.971
					c0.278,1.392,0.858,2.612,1.638,3.701c1.122,0.534,2.264,0.974,3.428,1.274C307.142,435.379,304.323,425.303,303.818,417.478z"
					/>
			</g>
			<g id="XMLID_4438_">
				<path style="fill:#41352B;" d="M363.395,403.957c-1.251-3.172-3.69-5.74-6.364-7.855c-10.047-7.949-23.883-10.24-36.428-7.645
					c-4.916,1.017-10.075,3.038-12.628,7.361c-1.455,2.464-1.88,5.381-2.276,8.214c-0.234,1.672-0.468,3.344-0.702,5.017
					c0.135-0.216,0.28-0.419,0.44-0.602c7.368-8.388,24.711-6.101,34.241-4.4c8.495,1.516,16.351,6.475,24.553,8.912
					C364.595,409.881,364.522,406.815,363.395,403.957z"/>
			</g>
			<g id="XMLID_4437_">
				<polygon style="fill:#EDD4B9;" points="208.609,364.633 212.806,354.123 211.031,352.102 208.455,354.187 209.441,344.466 
					205.025,337.879 194.477,337.563 185.682,344.005 186.479,354.512 193.551,364.855 195.2,369.009 210.064,367.88 				"/>
			</g>
			<g id="XMLID_4436_">
				<path style="fill:#87A597;" d="M519.397,642.97c-4.241-5.291-17.599-8.108-23.739-11.115
					c-13.715-6.716-26.993-14.547-38.878-24.233c-16.891-13.766-20.438-32.116-29.183-52.142
					c-4.414-10.109,71.296,25.112,68.349,14.484c-1.065-3.842-3.636-47.309-3.636-47.309l-107.329-72.833l0.017,3.451
					c-0.113-1.137-0.134-2.286-0.017-3.451c-15.216,7.3-30.276,5.152-45.948,8.702c-0.224,0.051-0.448,0.098-0.672,0.152
					c-6.598,1.563-14.181,2.793-21.72,4.296c-8.437,1.683-16.819,3.709-23.698,6.945c-2.114,0.995-4.053,2.316-5.842,3.885
					l-47.189-35.712l-23.737-70.676l-6.112,0.464l-14.864,1.129l-5.337,0.405l20.513,114.389l50.216,60.539
					c-1.987,12.361-3.534,24.654-4.116,31.753c-1.451,17.721-2.701,35.464-3.401,53.235c-0.78,19.831-0.884,39.704,0.173,59.53
					c0.117,2.202,0.216,8.388,0.574,15.782c0.754,15.561,2.658,36.471,8.305,36.851c1.058,0.071,2.025-0.551,2.905-1.148
					c4.723-3.206,8.673-6.956,12.62-10.671c3.813-3.588,7.622-7.143,12.123-10.142c9.602-6.397,20.827-10.219,31.894-13.117
					c4.823-1.291,9.689-2.464,14.58-3.535c11.884-2.604,23.937-4.539,36.025-5.6c1.952-0.171,4.111-0.307,6.396-0.417
					c17.174-0.822,41.935-0.041,47.401,0.15c0.709,0.025,1.111,0.04,1.111,0.04c10.297-2.59,19.995-7.11,29.738-11.353
					c16.739-7.291,33.892-13.88,49.404-23.545C511.304,659.053,524.998,649.959,519.397,642.97z"/>
			</g>
		</g>
		<g id="XMLID_1521_">
			<g id="XMLID_1525_">
				<g id="XMLID_1536_">
					<polygon style="fill:#698093;" points="1464.489,767.738 1436.401,892.506 1410.579,1040.958 1384.465,1040.958 
						1373.787,679.756 1460.125,681.323 					"/>
				</g>
				<g id="XMLID_1534_">
					<g id="XMLID_1535_">
						<polygon style="fill:#698093;" points="1299.177,760.108 1295.553,881.223 1332.025,1040.958 1355.468,1040.958 
							1357.864,872.505 1383.507,734.64 1389.884,690.629 1317.999,682.15 						"/>
					</g>
				</g>
				<g id="XMLID_1533_">
					<polygon style="fill:#ABADB2;" points="1356.044,434.284 1433.489,432.435 1478.391,515.944 1462.431,594.162 
						1459.589,687.767 1349.118,689.274 1312.768,683.373 1322.42,583.358 1316.886,449.756 					"/>
				</g>
				<g id="XMLID_1532_">
					<polygon style="fill:#ABADB2;" points="1352.171,484.884 1311.831,565.528 1276.537,584.078 1192.953,617.565 
						1191.832,589.692 1273.389,535.067 1316.886,449.756 					"/>
				</g>
				<g id="XMLID_1526_">
					<g id="XMLID_1531_">
						<path style="fill:#BF9E6C;" d="M1360.361,364.002c12.361-35.936,59.802-22.469,69.583,9.529
							c6.38,20.873-9.74,47.959-31.367,53.954c-0.095,0.821-0.167,1.589-0.17,2.24c-0.015,3.35-0.427,6.654-0.924,10.001
							c-0.185,1.248-19.113-2.389-21.223-2.804c-0.739-0.145-1.562-0.346-1.96-0.965c-0.763-1.189,0.478-4.689,0.617-6.009
							c0.164-1.559,0.327-3.118,0.491-4.677c-10.668-5.207-17.4-16.298-19.28-27.589
							C1354.238,386.339,1356.647,374.801,1360.361,364.002z"/>
					</g>
					<g id="XMLID_1528_">
						<g id="XMLID_1530_">
							<path style="fill:#4F4141;" d="M1391.312,331.529c2.544,2.583,3.544,6.185,4.277,9.644c0.438,2.065,0.815,4.203,0.373,6.248
								c-1.763,8.158-9.854,7.732-16.11,10.361c-7.717,3.242-14.371,9.213-18.692,16.088c-6.766,10.766-3.722,24.62-0.978,36.495
								c0.967,4.185,2.913,10.407-0.333,14.14c-3.298,3.793-10.921,3.207-14.871,1.256c-3.609-1.783-6.574-5.081-10.537-5.745
								c-4.195-0.702-9.863,1.142-11.815-2.707c-0.543-1.071-0.594-2.379-1.279-3.36c-2.318-3.314-8.083,0.567-11.349-1.769
								c-2.009-1.437-1.995-4.5-1.316-6.923c0.68-2.423,1.823-4.879,1.35-7.344c-0.407-2.119-1.935-3.793-2.88-5.721
								c-1.865-3.808-1.221-8.766,1.557-11.981c5.165-5.978,15.161-4.843,20.695-10.466c2.883-2.929,4.001-7.154,5.075-11.152
								c1.075-3.998,2.365-8.214,5.447-10.923c3.807-3.347,9.305-2.778,13.061-6.748c2.207-2.333,3.679-5.369,6.156-7.398
								c3.265-2.675,9.648-4.732,13.708-6.097C1379.294,325.264,1386.498,326.641,1391.312,331.529z"/>
						</g>
						<g id="XMLID_1529_">
							<path style="fill:#4F4141;" d="M1421.321,388.877c0.221,11.828-5.655,24.615-0.206,35.027
								c5.498,10.507,19.205,12.401,30.888,12.949c1.922,0.09,26.577,2.219,26.682,1.752c1.846-8.238,3.755-16.641,8.061-23.875
								c4.306-7.235,11.505-13.228,19.751-13.742c-2.38-0.413-3.579-3.325-3.304-5.781c0.275-2.456,1.547-4.67,2.281-7.029
								c1.806-5.797,0.048-12.561-4.323-16.635c-8.722-8.129-24.535-4.753-32.011-14.089c-4.636-5.79-4.084-14.186-6.513-21.254
								c-4.698-13.667-19.66-16.526-30.844-22.698c-11.806-6.515-22.922-10.086-36.549-7.815
								c-16.892,2.815-29.447,20.012-22.933,36.195c8.356,20.756,41.76,18.965,48.015,40.04
								C1420.989,384.182,1421.277,386.51,1421.321,388.877z"/>
						</g>
					</g>
				</g>
			</g>
			<g id="XMLID_1524_">
				<polygon style="fill:#D1D6D6;" points="1410.579,433.84 1386.554,467.797 1375.259,466.872 1356.435,432.435 				"/>
			</g>
			<g id="XMLID_1523_">
				<polygon style="fill:#3C3A38;" points="1384.465,1040.958 1370.551,1058.857 1383.507,1073.024 1401.68,1056.991 
					1410.579,1040.958 				"/>
			</g>
			<g id="XMLID_1522_">
				<polygon style="fill:#3C3A38;" points="1330.192,1040.958 1316.278,1058.857 1329.234,1073.024 1347.406,1056.991 
					1356.305,1040.958 				"/>
			</g>
		</g>
		<g id="XMLID_4413_">
			<g id="XMLID_4414_">
				<g id="XMLID_4416_">
					<g id="XMLID_4419_">
						<path style="fill:#334C60;" d="M998.265,995.485l-499.855,38.419c-10.769,0.828-20.159-7.078-20.972-17.657l-61.832-804.472
							c-0.813-10.579,7.258-19.827,18.027-20.655l499.855-38.419c10.769-0.828,20.159,7.078,20.972,17.657l61.832,804.471
							C1017.105,985.409,1009.034,994.657,998.265,995.485z"/>
					</g>
					<g id="XMLID_4418_">
						
							<rect x="472.338" y="215.606" transform="matrix(0.9971 -0.0766 0.0766 0.9971 -42.0827 56.4201)" style="fill:#D7E6ED;" width="483.528" height="721.868"/>
					</g>
					<g id="XMLID_4417_">
						
							<rect x="716.469" y="970.159" transform="matrix(0.9971 -0.0766 0.0766 0.9971 -72.658 59.9967)" style="fill:#FFFFFF;" width="57.899" height="13.126"/>
					</g>
				</g>
				<g id="XMLID_4415_" style="opacity:0.04;">
					<polygon points="453.068,335.104 500.709,954.94 982.815,917.885 					"/>
				</g>
			</g>
		</g>
		<g id="XMLID_1478_">
			<g id="XMLID_1479_">
				<g id="XMLID_1480_">
					<g id="XMLID_2269_">
						<g id="XMLID_2276_">
							
								<ellipse transform="matrix(0.7071 -0.7071 0.7071 0.7071 -143.238 888.2238)" style="fill:#E89F40;" cx="1000.562" cy="617.015" rx="209.984" ry="209.984"/>
						</g>
						<g id="XMLID_2273_" style="opacity:0.1;">
							<path style="fill:#272525;" d="M956.735,392.354C832.658,416.558,751.695,536.765,775.9,660.842
								c24.205,124.077,144.411,205.04,268.488,180.835c124.077-24.205,205.04-144.411,180.835-268.488
								C1201.019,449.112,1080.813,368.149,956.735,392.354z M1037.027,803.94c-103.236,20.139-203.251-47.224-223.39-150.46
								c-20.139-103.236,47.224-203.251,150.46-223.39c103.236-20.139,203.251,47.224,223.39,150.46
								C1207.626,683.786,1140.263,783.802,1037.027,803.94z"/>
						</g>
						<g id="XMLID_2270_">
							<path style="fill:#F2D042;" d="M952.24,369.309c-136.805,26.688-226.072,159.224-199.384,296.029
								c26.688,136.805,159.224,226.072,296.029,199.385c136.804-26.688,226.072-159.224,199.384-296.029
								C1221.581,431.888,1089.045,342.621,952.24,369.309z M1040.767,823.115c-113.826,22.205-224.1-52.068-246.305-165.894
								c-22.205-113.826,52.068-224.1,165.894-246.305c113.826-22.205,224.1,52.068,246.305,165.894
								C1228.866,690.635,1154.593,800.91,1040.767,823.115z"/>
						</g>
					</g>
					<g id="XMLID_1481_">
						<path style="fill:#F2D042;" d="M1085.312,613.446c-7.629-6.895-18.117-11.376-31.453-13.448
							c6.874-5.89,11.609-12.622,14.205-20.196c2.593-7.569,3.004-15.912,1.226-25.027c-3.533-18.111-12.632-30.678-27.297-37.695
							c-14.661-7.021-34.22-8.146-58.677-3.376l-8.823,1.721c-1.6-8.204-3.201-16.409-4.802-24.613
							c-1.471-7.543-15.12-4.881-13.648,2.662c1.6,8.205,3.201,16.409,4.801,24.614l-8.871,1.731
							c-1.6-8.204-3.201-16.409-4.802-24.613c-1.471-7.543-15.12-4.88-13.648,2.663c1.6,8.204,3.201,16.409,4.802,24.613
							l-35.824,6.988c-3.924,0.766-6.715,2.421-8.375,4.96c-1.659,2.538-2.097,5.826-1.309,9.865
							c0.923,4.733,2.83,7.742,5.716,9.034c2.887,1.295,8.771,1.071,17.655-0.662l5.711-1.114l30.416,155.918l-5.711,1.114
							c-9.577,1.868-15.472,3.885-17.683,6.052c-2.211,2.17-2.864,5.564-1.964,10.177c0.81,4.151,2.426,7.07,4.849,8.752
							s5.653,2.131,9.692,1.343l36.863-7.191c1.601,8.205,3.201,16.409,4.802,24.614c1.471,7.543,15.12,4.88,13.648-2.663
							c-1.601-8.205-3.201-16.409-4.802-24.613l8.872-1.731c1.6,8.204,3.201,16.409,4.802,24.614
							c1.471,7.543,15.12,4.88,13.648-2.663c-1.601-8.204-3.201-16.409-4.802-24.614l4.494-0.877l14.884-2.904
							c12.689-2.475,22.356-5.109,28.995-7.903c6.643-2.791,12.472-6.354,17.494-10.688c8.381-7.383,14.322-15.905,17.825-25.571
							c3.507-9.666,4.235-19.746,2.186-30.247C1097.978,630.015,1092.945,620.34,1085.312,613.446z M991.981,537.881
							c13.382-2.611,24.183-1.872,32.407,2.212c8.22,4.085,13.334,11.262,15.337,21.529c2.115,10.844-0.272,19.632-7.161,26.365
							c-6.89,6.733-18.529,11.697-34.907,14.892l-5.881,1.147c-4.141-21.227-8.282-42.455-12.423-63.682L991.981,537.881z
							 M965.706,543.007c4.141,21.227,8.282,42.455,12.423,63.682l-8.871,1.731c-4.141-21.227-8.282-42.455-12.423-63.682
							L965.706,543.007z M987.25,700.656c-4.613-23.649-9.227-47.299-13.84-70.948l8.872-1.73
							c4.613,23.649,9.227,47.299,13.84,70.948L987.25,700.656z M1062.152,677.51c-7.814,7.217-22.564,12.937-44.253,17.168
							l-8.129,1.586c-4.613-23.649-9.227-47.299-13.84-70.949l9.859-1.923c21.341-4.163,36.785-4.362,46.322-0.594
							c9.537,3.768,15.554,12.052,18.053,24.86C1072.64,660.35,1069.968,670.301,1062.152,677.51z"/>
					</g>
				</g>
			</g>
		</g>
		<g id="XMLID_1537_">
			<g id="XMLID_1539_">
				<polygon style="fill:#BF9E6C;" points="1247.429,637.076 1224.671,639.588 1223.702,647.449 1209.409,657.213 1215.475,666.386 
					1244.975,656.96 				"/>
			</g>
			<g id="XMLID_1538_">
				<polygon style="fill:#ABADB2;" points="1451.775,527.507 1401.863,602.603 1364.562,616.691 1243.198,660.185 1245.498,632.384 
					1367.44,567.664 1421.058,488.322 				"/>
			</g>
		</g>
	</g>
</g>
</svg>
