<?xml version="1.0" encoding="utf-8"?>
<!-- Generator: Adobe Illustrator 27.5.0, SVG Export Plug-In . SVG Version: 6.00 Build 0)  -->
<svg version="1.1" xmlns="http://www.w3.org/2000/svg" xmlns:xlink="http://www.w3.org/1999/xlink" x="0px" y="0px"
	 viewBox="0 0 1122 1122" style="enable-background:new 0 0 1122 1122;" xml:space="preserve">
<g id="BG">
	<rect style="fill:#0000;" width="1422" height="1422"/>
</g>
<g id="Objects">
	<g>
		<g>
			<g>
				<g>
					<g id="XMLID_6_">
						<g>
							<g>
								<path style="fill:#fff;" d="M560.762,528.163c-146.764,0-266.703,68.936-274.762,155.834v18.677
									c0.475,5.383,1.427,10.736,2.766,15.97c20.282,79.196,134.333,139.864,271.996,139.864
									c137.693,0,251.744-60.668,272.027-139.864c1.546-5.978,2.527-12.044,2.943-18.23v-14.156
									C829.577,598.288,708.834,528.163,560.762,528.163z"/>
							</g>
							<g>
								<g>
									<path style="fill:#fff;" d="M835.732,686.257v14.156c0.179-2.349,0.268-4.699,0.268-7.078
										S835.911,688.607,835.732,686.257z"/>
								</g>
								<g>
									<path style="fill:#fff;" d="M835.732,700.413c-0.416,6.186-1.398,12.253-2.943,18.23
										c-20.283,79.196-134.333,139.864-272.027,139.864c-137.664,0-251.714-60.668-271.996-139.864
										c-1.338-5.234-2.29-10.587-2.766-15.97v31.91v18.676c8.059,86.869,127.998,155.834,274.762,155.834
										c148.072,0,268.815-70.155,274.97-158.095c0.179-2.349,0.268-4.699,0.268-7.078s-0.089-4.729-0.268-7.078V700.413z"/>
								</g>
							</g>
						</g>
					</g>
				</g>
				<g id="XMLID_11_">
					<g>
						<path style="fill:#ffa90a;" d="M749.488,762.658l35.836,25.546c-14.989,12.371-30.334,22.78-30.334,22.78
							c-61.471,32.357-122.08,43.687-168.266,46.721v-0.625L483.618,686.585l181.41,15.851l39.048,27.866L749.488,762.658z"/>
						<polygon style="fill:#ffa90a;" points="749.488,762.658 704.076,730.302 759.213,731.194 						"/>
						<path style="fill:#ffa90a;" d="M785.978,788.68v49.695c-13.085,11.123-30.037,22.929-51.806,34.319
							c-49.248,25.784-109.054,33.606-147.448,35.836v-50.825c46.185-3.034,106.794-14.364,168.266-46.721
							c0,0,15.345-10.409,30.334-22.78L785.978,788.68z"/>
						<path style="fill:#ffa90a;" d="M770.097,664.756c35.687,24.802-13.858,38.661-13.858,38.661
							c-50.379,3.39-63.077-26.706-65.783-35.985l5.294-1.665l8.922-1.011H770.097z"/>
						<path style="fill:#ffa90a;" d="M508.391,763.907c0,0,11.896,28.728-24.773,39.137c-36.669,10.409-57.992-26.766-55.999-37.65
							L508.391,763.907z"/>
						<path style="fill:#ffa90a;" d="M464.287,666.748c0,0,28.758,39.643,17.843,52.044c-10.914,12.401-49.575,18.825-60.46,1.993
							c0,0,7.435,27.241-31.226,30.215c-38.661,2.974-53.531-26.766-46.602-44.104C350.772,689.558,464.287,666.748,464.287,666.748
							z"/>
					</g>
				</g>
				<g id="XMLID_10_">
					<g>
						<path style="fill:#ffa90a;" d="M693.44,359.508c2.539,2.861,3.869,7.191,3.411,12.031l-30.392,327.968
							c-0.308,3.33-1.846,6.583-4.164,8.881c-0.058,0.045-0.117,0.125-0.176,0.171l-10.049,9.407
							c-2.285,2.154-4.815,3.7-7.358,4.628L677.619,386.4c0.383-4.068-1.053-7.551-3.649-9.231L693.44,359.508z"/>
						<path style="fill:#ffa90a;" d="M693.44,359.508L673.97,377.17c-0.677-0.458-1.443-0.761-2.269-0.949l-144.916-31.01
							l-0.029,0.006l-5.045-1.114l16.963-15.88c2.842-2.672,6.336-3.849,9.443-3.161l128.769,28.135l11.612,3.214
							C690.435,356.941,692.099,358.039,693.44,359.508z"/>
						<path style="fill:#ffa90a;" d="M673.97,377.17c2.596,1.68,4.032,5.163,3.649,9.231l-32.908,336.193
							c-2.86,1.022-5.76,1.295-8.525,0.715l-86.311-18.451l1.655-5.755c1.31,0.338,2.683,0.423,4.148,0.25
							c8.017-1.032,15.05-10.076,15.718-20.157c0.54-8.265-3.377-14.69-9.186-16.176l1.496-5.105l71.959,15.995l28.688-274.085
							l-96.9-20.136l1.502-5.347c0.54,0.174,1.169,0.227,1.802,0.107c2.59-0.489,4.75-3.377,4.823-6.491
							c0.065-2.733-1.493-4.678-3.61-4.829l2.184-7.542l99.554,21.805L673.97,377.17z M628.893,384.996l0.904-7.921l-47.011-10.925
							l-0.904,7.921L628.893,384.996z"/>
						<path style="fill:#ffa90a;" d="M673.97,377.17l-0.263,0.222l-99.554-21.805l-47.369-10.376l144.916,31.01
							C672.527,376.409,673.294,376.712,673.97,377.17z"/>
						<polygon style="fill:#434244;" points="664.352,399.825 635.665,673.91 563.705,657.915 497.446,643.185 523.236,370.509 
							567.453,379.689 						"/>
						<polygon style="fill:#808183;" points="629.796,377.075 628.893,384.996 581.881,374.07 582.785,366.15 						"/>
						<path style="fill:#D0D1D3;" d="M562.209,663.02c5.809,1.486,9.725,7.91,9.186,16.176c-0.668,10.081-7.7,19.125-15.718,20.157
							c-1.465,0.173-2.838,0.088-4.148-0.25c-5.809-1.521-9.696-7.951-9.186-16.176c0.669-10.115,7.701-19.125,15.718-20.157
							C559.527,662.596,560.9,662.681,562.209,663.02z"/>
						<path style="fill:#ffa90a;" d="M574.154,355.587l-2.184,7.542c-0.315-0.009-0.631,0.016-0.947,0.076
							c-2.59,0.489-4.722,3.406-4.795,6.52c-0.055,2.318,1.049,4.108,2.727,4.617l-1.502,5.347l-44.217-9.18l-25.79,272.676
							l66.259,14.729l-1.496,5.105c-1.31-0.339-2.683-0.423-4.148-0.25c-8.018,1.032-15.049,10.041-15.718,20.157
							c-0.51,8.225,3.378,14.655,9.186,16.176l-1.655,5.755l-60.771-13.011c-4.161-0.902-6.72-5.344-6.221-10.708l2.977-30.15
							l28.79-294.15c0.684-7.122,6.606-12.821,12.107-11.621l0.029-0.006L574.154,355.587z"/>
						<path style="fill:#6D6E70;" d="M571.97,363.129c2.117,0.151,3.675,2.096,3.61,4.829c-0.073,3.114-2.233,6.002-4.823,6.491
							c-0.633,0.12-1.262,0.066-1.802-0.107c-1.678-0.509-2.782-2.299-2.727-4.617c0.074-3.114,2.206-6.031,4.795-6.52
							C571.339,363.145,571.655,363.12,571.97,363.129z"/>
					</g>
				</g>
				<g>
					<g>
						<path style="fill:#FFCE00;" d="M454.494,586.779c-6.537-3.482-15.705-5.661-25.823-5.661c-19.962,0-36.166,8.441-36.166,18.86
							c0,1.628,0.401,3.206,1.152,4.709v0.025c0.827,1.678,2.079,3.231,3.683,4.709c1.978,1.753,4.483,3.356,7.413,4.709
							c0.601,0.276,1.228,0.551,1.854,0.801c6.111,2.455,13.751,3.907,22.066,3.907c9.167,0,17.533-1.778,23.895-4.709
							c2.955-1.352,5.46-2.955,7.413-4.709c1.604-1.478,2.856-3.031,3.682-4.709v-0.025l0,0c0.751-1.503,1.152-3.08,1.152-4.709
							C464.813,594.843,460.88,590.185,454.494,586.779z"/>
					</g>
					<g>
						<path style="fill:#D6AD00;" d="M464.7,627.362c-0.123-1.3-0.432-2.575-1.04-3.79c-0.826,1.678-2.078,3.256-3.706,4.709
							c-1.979,1.778-4.483,3.381-7.439,4.709c-6.362,2.93-14.702,4.709-23.844,4.709c-9.167,0-17.482-1.778-23.869-4.709
							c-2.955-1.328-5.46-2.93-7.439-4.709c-1.202-1.102-2.229-2.254-2.98-3.456c-0.576,0.476-1.152,0.977-1.703,1.478
							c-0.1,0.651-0.175,1.302-0.175,1.978c0,1.628,0.401,3.206,1.152,4.709v0.025c0.827,1.678,2.079,3.256,3.707,4.709
							c1.954,1.779,4.458,3.356,7.388,4.709c6.387,2.93,14.727,4.709,23.919,4.709c9.167,0,17.533-1.779,23.895-4.709
							c2.93-1.353,5.434-2.93,7.388-4.709c1.628-1.453,2.88-3.031,3.706-4.709v-0.025c0.608-1.215,0.917-2.49,1.04-3.79V627.362z"/>
					</g>
					<g>
						<path style="fill:#BF9A00;" d="M464.7,617.987c-0.11-1.324-0.422-2.622-1.04-3.858c-0.801,1.678-2.054,3.256-3.682,4.709
							c-1.978,1.779-4.482,3.381-7.438,4.734c-6.362,2.93-14.728,4.709-23.869,4.709c-9.167,0-17.482-1.778-23.869-4.709
							c-1.978-0.901-3.782-1.903-5.334-3.056c-0.777-0.526-1.478-1.102-2.129-1.678c-1.603-1.453-2.881-3.03-3.683-4.709
							c-0.751,1.503-1.152,3.081-1.152,4.709c0,1.628,0.401,3.206,1.152,4.709c0,0,0,0,0,0.025c0.2,0.426,0.452,0.852,0.727,1.252
							c0.751,1.202,1.778,2.355,2.98,3.456c1.979,1.778,4.484,3.381,7.439,4.709c6.387,2.93,14.702,4.709,23.869,4.709
							c9.142,0,17.482-1.778,23.844-4.709c2.956-1.328,5.46-2.93,7.439-4.709c1.628-1.453,2.88-3.031,3.706-4.709
							c0-0.025,0-0.025,0-0.025c0.618-1.236,0.93-2.533,1.04-3.858V617.987z"/>
					</g>
					<g>
						<g>
							<path style="fill:#D6AD00;" d="M393.656,623.571c0.2,0.426,0.451,0.852,0.726,1.252c-0.576,0.476-1.152,0.977-1.703,1.478
								C392.88,625.375,393.206,624.448,393.656,623.571z"/>
						</g>
					</g>
					<g>
						<path style="fill:#BF9A00;" d="M464.7,657.501c-0.123,1.3-0.432,2.575-1.04,3.79v0.025
							c-4.033,8.14-18.158,14.126-34.99,14.126c-16.831,0-30.982-5.986-35.015-14.126v-0.025c-0.751-1.503-1.152-3.081-1.152-4.709
							v9.442c0,10.419,16.205,18.86,36.166,18.86c16.681,0,30.707-5.886,34.865-13.901c0.595-1.136,0.987-2.313,1.165-3.528V657.501
							z"/>
					</g>
					<g>
						<path style="fill:#BF9A00;" d="M464.7,638.641c-0.123,1.3-0.432,2.575-1.04,3.79c0,0,0,0,0,0.025
							c-0.826,1.678-2.078,3.231-3.682,4.684c-1.978,1.778-4.482,3.381-7.438,4.734c-6.362,2.93-14.702,4.709-23.869,4.709
							c-9.167,0-17.482-1.778-23.869-4.709c-2.955-1.328-5.485-2.93-7.463-4.734c-1.603-1.453-2.856-3.031-3.683-4.684
							c0-0.025,0-0.025,0-0.025c-0.751-1.503-1.152-3.081-1.152-4.709v9.443c0,1.628,0.401,3.206,1.152,4.709
							c0.827,1.678,2.079,3.256,3.707,4.709c6.262,5.635,17.933,9.442,31.308,9.442c13.375,0,25.046-3.807,31.283-9.442
							c1.628-1.453,2.905-3.031,3.706-4.709c0.608-1.215,0.917-2.49,1.04-3.79V638.641z"/>
					</g>
					<g>
						<path style="fill:#C9A200;" d="M464.7,629.198c-0.123,1.3-0.432,2.575-1.04,3.79v0.025c-0.826,1.678-2.078,3.256-3.706,4.709
							c-1.954,1.779-4.458,3.356-7.388,4.709c-6.362,2.93-14.728,4.709-23.895,4.709c-9.192,0-17.532-1.779-23.919-4.709
							c-2.93-1.353-5.434-2.93-7.388-4.709c-1.628-1.453-2.88-3.031-3.707-4.709v-0.025c-0.751-1.503-1.152-3.081-1.152-4.709v9.442
							c0,1.628,0.401,3.206,1.152,4.709c0,0,0,0,0,0.025c0.827,1.653,2.079,3.231,3.683,4.684c1.978,1.803,4.508,3.406,7.463,4.734
							c6.387,2.93,14.702,4.709,23.869,4.709c9.167,0,17.508-1.778,23.869-4.709c2.956-1.353,5.46-2.956,7.438-4.734
							c1.604-1.453,2.856-3.006,3.682-4.684c0-0.025,0-0.025,0-0.025c0.608-1.215,0.917-2.49,1.04-3.79V629.198z"/>
					</g>
					<g>
						<g>
							<path style="fill:#D6AD00;" d="M393.656,623.547c0,0,0,0,0,0.025c-0.451,0.877-0.777,1.803-0.977,2.73
								c-0.05,0.05-0.125,0.1-0.175,0.175v-7.639C392.504,620.466,392.905,622.044,393.656,623.547z"/>
						</g>
					</g>
					<g>
						<path style="fill:#D6AD00;" d="M464.7,608.502c-0.123-1.301-0.432-2.575-1.04-3.79c-0.043,0.087-0.086,0.174-0.131,0.26
							c-0.826,1.579-2.03,3.048-3.551,4.449c-1.953,1.753-4.458,3.356-7.413,4.709c-6.362,2.93-14.728,4.709-23.895,4.709
							c-8.315,0-15.954-1.453-22.066-3.907c-0.626-0.25-1.253-0.526-1.854-0.801c-2.93-1.352-5.434-2.955-7.413-4.709
							c-1.603-1.478-2.856-3.031-3.683-4.709v-0.025c-0.751-1.503-1.152-3.08-1.152-4.709v9.442c0,1.628,0.401,3.206,1.152,4.709
							c0.801,1.678,2.079,3.256,3.683,4.709c0.65,0.576,1.352,1.152,2.129,1.678c1.552,1.152,3.356,2.154,5.334,3.056
							c6.387,2.93,14.702,4.709,23.869,4.709c9.142,0,17.508-1.778,23.869-4.709c2.956-1.352,5.46-2.955,7.438-4.734
							c1.628-1.453,2.881-3.03,3.682-4.709c0.608-1.215,0.917-2.49,1.04-3.79V608.502z"/>
					</g>
					<g>
						<g>
							<path style="fill:#BF9A00;" d="M392.504,609.42c0,1.628,0.401,3.206,1.152,4.709c-0.752,1.503-1.152,3.081-1.152,4.709
								V609.42z"/>
						</g>
					</g>
					<g>
						<path style="fill:#C9A200;" d="M464.7,648.083c-0.123,1.3-0.432,2.575-1.04,3.79c-0.801,1.678-2.078,3.256-3.706,4.709
							c-6.237,5.635-17.908,9.442-31.283,9.442c-13.375,0-25.046-3.807-31.308-9.442c-1.628-1.453-2.88-3.031-3.707-4.709
							c-0.751-1.503-1.152-3.081-1.152-4.709v9.417c0,1.628,0.401,3.206,1.152,4.709v0.025c4.032,8.14,18.184,14.126,35.015,14.126
							c16.831,0,30.957-5.986,34.99-14.126v-0.025c0.608-1.215,0.917-2.49,1.04-3.79V648.083z"/>
					</g>
					<g>
						<g>
							<g>
								<g>
									<g>
										<g>
											<g>
												<path style="fill:#CEA600;" d="M440.424,606.56c3.688-2.108,5.249-4.42,4.158-6.317
													c-1.542-2.681-7.677-3.72-12.645-3.322c-0.627,0.049-1.251,0.131-1.876,0.205c-2.627-2.286-5.32-4.547-8.062-6.788
													c2.196-0.609,4.762-0.788,6.732-0.814c1.222-0.016,2.611,0.109,2.847,0.507c0.198,0.333,0.902,0.504,1.57,0.378
													c0.669-0.125,1.051-0.497,0.853-0.831c-0.535-0.902-2.366-1.38-5.155-1.343c-3.175,0.038-5.942,0.401-8.156,1.046
													c-1.336-1.081-2.652-2.172-4.013-3.241c-0.368-0.289-1.147-0.354-1.739-0.144c-0.593,0.209-0.775,0.612-0.407,0.901
													c1.37,1.076,2.695,2.174,4.04,3.263c-0.008,0.004-0.018,0.006-0.025,0.01c-2.961,1.393-4.244,3.662-3.12,5.52
													c1.125,1.857,4.608,3.22,8.47,3.315c1.662,0.042,3.268-0.131,4.833-0.323c2.953,2.588,5.811,5.203,8.599,7.834
													c-3.024,1.479-6.022,2.342-8.91,2.554c-2.914,0.218-6.579-0.39-7.7-1.921c-0.238-0.327-0.96-0.469-1.618-0.327
													c-0.657,0.146-0.995,0.527-0.757,0.852c1.497,2.047,5.955,2.89,9.772,2.703c0.163-0.008,0.325-0.018,0.485-0.029
													c3.287-0.242,6.612-1.168,9.897-2.706c1.409,1.344,2.834,2.686,4.197,4.038c0.226,0.224,0.688,0.339,1.165,0.315
													c0.178-0.009,0.358-0.036,0.527-0.086c0.625-0.181,0.881-0.576,0.572-0.883
													C443.487,609.461,441.95,608.011,440.424,606.56z M432.147,598.195c4.021-0.316,8.879,0.528,10.008,2.491
													c1.006,1.751-1.143,3.553-2.959,4.692c-2.534-2.383-5.119-4.754-7.787-7.101
													C431.655,598.251,431.9,598.214,432.147,598.195z M424.196,597.614c-2.897-0.072-5.509-1.094-6.353-2.486
													c-0.805-1.331,0.052-2.938,2.065-3.99c2.542,2.079,5.036,4.176,7.479,6.294
													C426.294,597.553,425.235,597.64,424.196,597.614z"/>
											</g>
										</g>
									</g>
								</g>
							</g>
						</g>
					</g>
					<g>
						<path style="fill:#D6AD00;" d="M464.7,610.362v-6.106c0-0.056,0.027-0.096,0.03-0.149v-3.172
							c-0.097,1.119-0.368,2.504-1.069,3.777L464.7,610.362z"/>
					</g>
					<g>
						<path style="fill:#BF9A00;" d="M464.7,610.593c-0.117,1.069-0.394,2.332-1.04,3.506l1.04,5.65V610.593z"/>
					</g>
					<g>
						<path style="fill:#D6AD00;" d="M464.7,619.838c-0.109,1.088-0.372,2.389-1.04,3.6l1.04,5.65V619.838z"/>
					</g>
				</g>
				<g>
					<g>
						<path style="fill:#FFCE00;" d="M769.317,618.707L769.317,618.707c-3.006-3.757-8.065-6.988-14.451-9.267
							c3.505,2.086,6.88,4.242,10.198,6.435c-3.318-2.193-6.693-4.349-10.198-6.435c-6.513-2.329-14.402-3.707-22.943-3.707
							c-22.341,0-40.474,9.442-40.474,21.089c0,1.728,0.4,3.406,1.152,5.009c0.125,0.276,0.25,0.551,0.425,0.827
							c1.052,1.954,2.655,3.782,4.709,5.46l0,0c3.03,2.479,7.037,4.609,11.746,6.237c6.312,2.179,13.826,3.481,21.941,3.532
							c0.175,0,0.326,0,0.501,0c8.316,0,16.03-1.303,22.442-3.532c4.709-1.628,8.741-3.757,11.772-6.237
							c2.329-1.929,4.083-4.032,5.134-6.287c0.751-1.603,1.152-3.281,1.152-5.009C772.422,623.942,771.32,621.212,769.317,618.707z"
							/>
					</g>
					<g>
						<path style="fill:#DBB100;" d="M771.27,631.831c-1.052,2.254-2.805,4.358-5.134,6.287c-3.031,2.479-7.063,4.609-11.772,6.237
							c-6.412,2.229-14.126,3.532-22.442,3.532c-0.175,0-0.326,0-0.501,0c-8.115-0.05-15.628-1.353-21.941-3.532
							c-4.709-1.628-8.716-3.757-11.746-6.237c-2.054-1.678-3.657-3.507-4.709-5.46c-0.225-0.1-0.45-0.175-0.676-0.225
							c0.075-0.201,0.15-0.401,0.25-0.601c-0.752-1.603-1.152-3.281-1.152-5.009v5.31v4.709c0,2.179,0.627,4.283,1.829,6.262
							c0,0-0.025,0,0,0.025c1.352,2.254,3.431,4.358,6.086,6.262c7.364,5.184,19.21,8.541,32.56,8.541
							c5.635,0,10.97-0.601,15.854-1.678c6.688-1.478,12.448-3.882,16.731-6.862c2.655-1.903,4.734-4.007,6.086-6.262
							c0-0.025,0-0.025,0-0.025c1.202-1.979,1.828-4.083,1.828-6.262v-10.018C772.422,628.55,772.021,630.229,771.27,631.831z"/>
					</g>
					<g>
						<path style="fill:#BF9A00;" d="M770.594,643.102c0,0,0,0,0,0.025c-1.352,2.254-3.431,4.358-6.086,6.262
							c-4.282,2.981-10.043,5.385-16.731,6.862c-4.884,1.077-10.219,1.678-15.854,1.678c-13.35,0-25.196-3.356-32.56-8.541
							c-2.654-1.903-4.734-4.007-6.086-6.262c-0.025-0.025,0-0.025,0-0.025c-1.202-1.979-1.829-4.083-1.829-6.262v12.523
							c0,2.179,0.627,4.308,1.829,6.287c5.109,8.566,20.487,14.802,38.646,14.802c11.396,0,21.69-2.455,29.029-6.412
							c4.383-2.329,7.739-5.21,9.643-8.391c1.202-1.979,1.828-4.108,1.828-6.287v-12.523
							C772.422,639.02,771.796,641.123,770.594,643.102z"/>
					</g>
					<g>
						<path style="fill:#D6AD00;" d="M770.594,655.651c-1.904,3.181-5.259,6.061-9.643,8.391
							c-7.339,3.957-17.633,6.412-29.029,6.412c-18.159,0-33.537-6.237-38.646-14.802c-1.202-1.979-1.829-4.108-1.829-6.287v12.548
							c0,11.646,18.133,21.064,40.475,21.064c17.057,0,31.659-5.485,37.62-13.25c1.278-1.653,2.154-3.432,2.58-5.26
							c0.2-0.826,0.301-1.678,0.301-2.555v-12.548C772.422,651.543,771.796,653.672,770.594,655.651z"/>
					</g>
					<g>
						<g>
							<g>
								<g>
									<g>
										<g>
											<g>
												<path style="fill:#CEA600;" d="M746.807,635.461c4.447-2.542,6.33-5.33,5.015-7.617
													c-1.859-3.233-9.257-4.486-15.248-4.006c-0.756,0.059-1.509,0.158-2.263,0.247c-3.168-2.757-6.415-5.483-9.722-8.185
													c2.647-0.735,5.742-0.95,8.117-0.982c1.473-0.019,3.148,0.131,3.433,0.611c0.239,0.402,1.088,0.608,1.893,0.455
													c0.806-0.151,1.268-0.599,1.029-1.002c-0.645-1.088-2.853-1.664-6.216-1.62c-3.829,0.046-7.165,0.484-9.835,1.262
													c-1.611-1.304-3.198-2.62-4.839-3.908c-0.443-0.348-1.383-0.427-2.097-0.174c-0.715,0.252-0.934,0.738-0.491,1.086
													c1.652,1.297,3.25,2.622,4.872,3.935c-0.009,0.004-0.021,0.007-0.031,0.012c-3.571,1.68-5.118,4.416-3.762,6.656
													c1.356,2.239,5.556,3.883,10.214,3.997c2.004,0.05,3.941-0.158,5.828-0.39c3.56,3.12,7.008,6.273,10.369,9.446
													c-3.647,1.783-7.261,2.824-10.744,3.079c-3.514,0.263-7.933-0.47-9.285-2.316c-0.288-0.394-1.157-0.566-1.951-0.394
													c-0.792,0.175-1.2,0.635-0.912,1.027c1.805,2.468,7.181,3.485,11.783,3.259c0.197-0.01,0.393-0.022,0.586-0.036
													c3.963-0.291,7.973-1.408,11.934-3.263c1.699,1.621,3.418,3.238,5.06,4.869c0.273,0.27,0.83,0.409,1.405,0.381
													c0.214-0.01,0.431-0.044,0.636-0.103c0.754-0.218,1.063-0.695,0.69-1.065
													C750.499,638.959,748.647,637.211,746.807,635.461z M736.825,625.374c4.849-0.381,10.707,0.637,12.069,3.004
													c1.214,2.111-1.379,4.284-3.569,5.657c-3.055-2.873-6.173-5.733-9.39-8.563
													C736.232,625.442,736.527,625.398,736.825,625.374z M727.237,624.673c-3.493-0.086-6.642-1.319-7.661-2.998
													c-0.97-1.605,0.063-3.542,2.49-4.811c3.066,2.507,6.073,5.036,9.019,7.59C729.768,624.6,728.49,624.704,727.237,624.673
													z"/>
											</g>
										</g>
									</g>
								</g>
							</g>
						</g>
					</g>
				</g>
				<g>
					<g>
						<g>
							<path style="fill:#898684;" d="M422.018,706.053c0,0.876-0.1,1.728-0.301,2.555c-0.426,1.828-1.302,3.607-2.58,5.26
								c-2.78-1.929-5.66-3.832-8.591-5.686c4.383-2.329,7.739-5.209,9.643-8.39C421.392,701.77,422.018,703.874,422.018,706.053z"
								/>
						</g>
					</g>
					<g>
						<g>
							<path style="fill:#898684;" d="M419.138,713.867c-5.961,7.765-20.563,13.249-37.62,13.249
								c-22.341,0-40.475-9.417-40.475-21.064c0-2.179,0.626-4.283,1.828-6.262c5.11,8.566,20.488,14.802,38.646,14.802
								c11.396,0,21.69-2.454,29.029-6.412C413.477,710.035,416.357,711.939,419.138,713.867z"/>
						</g>
					</g>
					<g>
						<g>
							<path style="fill:#B7B3AC;" d="M422.018,670.963v10.019c0-1.728-0.401-3.407-1.152-5.009
								C421.617,674.369,422.018,672.691,422.018,670.963z"/>
						</g>
					</g>
					<g>
						<g>
							<path style="fill:#B7B3AC;" d="M342.195,675.972c-0.1,0.2-0.175,0.401-0.25,0.601c-0.301-0.125-0.601-0.226-0.902-0.301
								v-5.31C341.043,672.691,341.444,674.369,342.195,675.972z"/>
						</g>
					</g>
					<g>
						<g>
							<path style="fill:#B7B3AC;" d="M341.043,676.273c0.301,0.075,0.601,0.175,0.902,0.301c-0.601,1.427-0.902,2.905-0.902,4.408
								V676.273z"/>
						</g>
					</g>
					<g>
						<g>
							<path style="fill:#898684;" d="M422.018,693.505v12.548c0-2.179-0.626-4.283-1.828-6.262
								C421.392,697.813,422.018,695.684,422.018,693.505z"/>
						</g>
					</g>
					<g>
						<g>
							<path style="fill:#9B9894;" d="M422.018,680.982v12.523c0-2.179-0.626-4.258-1.828-6.237c0-0.025,0-0.025,0-0.025
								C421.392,685.264,422.018,683.161,422.018,680.982z"/>
						</g>
					</g>
					<g>
						<g>
							<path style="fill:#B7B3AC;" d="M420.866,675.972c0.751,1.603,1.152,3.281,1.152,5.009c0,2.179-0.626,4.283-1.828,6.261
								c-1.052-1.778-2.58-3.456-4.458-4.984C418.061,680.33,419.814,678.227,420.866,675.972z"/>
						</g>
					</g>
					<g>
						<g>
							<path style="fill:#9B9894;" d="M420.189,687.268c1.202,1.978,1.828,4.057,1.828,6.237c0,2.179-0.626,4.308-1.828,6.287
								c-1.352-2.279-3.431-4.383-6.086-6.262C416.758,691.626,418.837,689.522,420.189,687.268z"/>
						</g>
					</g>
					<g>
						<g>
							<path style="fill:#B7B3AC;" d="M420.189,687.243c0,0,0,0,0,0.025c-1.352,2.254-3.431,4.358-6.086,6.262
								c-2.805-1.979-6.237-3.682-10.144-5.034c4.709-1.628,8.741-3.757,11.772-6.236
								C417.61,683.787,419.138,685.465,420.189,687.243z"/>
						</g>
					</g>
					<g>
						<g>
							<path style="fill:#9B9894;" d="M414.103,693.53c2.655,1.878,4.734,3.982,6.086,6.262c-1.903,3.181-5.26,6.061-9.643,8.39
								c-4.233-2.68-8.641-5.285-13.174-7.789C404.06,698.915,409.82,696.51,414.103,693.53z"/>
						</g>
					</g>
					<g>
						<g>
							<path style="fill:#CBC6BD;" d="M404.46,653.581c6.387,2.279,11.446,5.51,14.452,9.267
								C414.279,659.642,409.47,656.561,404.46,653.581z"/>
						</g>
					</g>
					<g>
						<g>
							<path style="fill:#B7B3AC;" d="M403.96,688.495c3.907,1.352,7.338,3.056,10.144,5.034c-4.283,2.98-10.044,5.385-16.731,6.862
								c-5.26-2.905-10.719-5.711-16.355-8.365c0.175,0,0.326,0,0.501,0C389.833,692.027,397.548,690.725,403.96,688.495z"/>
						</g>
					</g>
					<g>
						<g>
							<path style="fill:#9B9894;" d="M410.547,708.182c-7.339,3.958-17.632,6.412-29.029,6.412
								c-18.158,0-33.537-6.237-38.646-14.802c1.353-2.279,3.432-4.383,6.086-6.262c7.364,5.184,19.21,8.541,32.56,8.541
								c5.636,0,10.97-0.601,15.854-1.678C401.906,702.897,406.314,705.502,410.547,708.182z"/>
						</g>
					</g>
					<g>
						<g>
							<path style="fill:#B7B3AC;" d="M381.017,692.027c5.636,2.655,11.095,5.46,16.355,8.365
								c-4.884,1.077-10.219,1.678-15.854,1.678c-13.35,0-25.196-3.356-32.56-8.541c2.78-1.979,6.211-3.682,10.119-5.034
								C365.388,690.674,372.902,691.977,381.017,692.027z"/>
						</g>
					</g>
					<g>
						<g>
							<path style="fill:#CBC6BD;" d="M418.912,662.848c-4.634-3.206-9.443-6.287-14.452-9.267
								c-6.512-2.33-14.401-3.707-22.942-3.707c-22.341,0-40.475,9.443-40.475,21.089c0,1.728,0.401,3.406,1.152,5.009
								c0.125,0.276,0.251,0.551,0.426,0.827c2.83,0.901,5.636,1.878,8.391,2.855c-1.353,0.802-2.58,1.678-3.682,2.605
								c3.031,2.48,7.038,4.609,11.747,6.237c6.312,2.179,13.826,3.482,21.94,3.531c0.175,0,0.326,0,0.501,0
								c8.315,0,16.03-1.302,22.441-3.531c4.709-1.628,8.741-3.757,11.772-6.237c2.329-1.929,4.083-4.032,5.135-6.286
								c0.751-1.603,1.152-3.281,1.152-5.009C422.018,668.083,420.916,665.353,418.912,662.848z"/>
						</g>
					</g>
					<g>
						<g>
							<path style="fill:#B7B3AC;" d="M347.33,682.259c3.031,2.48,7.038,4.608,11.747,6.236c-3.907,1.352-7.339,3.056-10.119,5.034
								c-2.655-1.904-4.734-4.008-6.086-6.262c-0.025-0.025,0-0.025,0-0.025C343.924,685.465,345.427,683.787,347.33,682.259z"/>
						</g>
					</g>
					<g>
						<g>
							<path style="fill:#CBC6BD;" d="M351.012,679.654c-1.352,0.802-2.58,1.678-3.682,2.605c-2.054-1.678-3.657-3.507-4.709-5.46
								C345.452,677.7,348.257,678.677,351.012,679.654z"/>
						</g>
					</g>
					<g>
						<g>
							<path style="fill:#B7B3AC;" d="M347.33,682.259c-1.903,1.528-3.406,3.206-4.458,4.984c-1.202-1.979-1.828-4.083-1.828-6.261
								c0-1.503,0.301-2.981,0.902-4.408c0.225,0.05,0.451,0.125,0.676,0.225C343.673,678.752,345.276,680.581,347.33,682.259z"/>
						</g>
					</g>
					<g>
						<g>
							<path style="fill:#9B9894;" d="M342.872,687.268c1.353,2.254,3.432,4.358,6.086,6.262c-2.655,1.878-4.734,3.982-6.086,6.262
								c-1.202-1.979-1.828-4.108-1.828-6.287C341.043,691.326,341.669,689.247,342.872,687.268z"/>
						</g>
					</g>
					<g>
						<g>
							<path style="fill:#9B9894;" d="M342.872,687.243c0,0-0.025,0,0,0.025c-1.202,1.978-1.828,4.057-1.828,6.237v-12.523
								C341.043,683.161,341.669,685.264,342.872,687.243z"/>
						</g>
					</g>
					<g>
						<g>
							<path style="fill:#898684;" d="M341.043,693.505c0,2.179,0.626,4.308,1.828,6.287c-1.202,1.978-1.828,4.082-1.828,6.262
								V693.505z"/>
						</g>
					</g>
					<g>
						<g>
							<g>
								<g>
									<g>
										<g>
											<g>
												<path style="fill:#9B9894;" d="M396.402,679.601c4.447-2.542,6.33-5.33,5.015-7.617
													c-1.859-3.233-9.257-4.486-15.247-4.006c-0.756,0.059-1.509,0.158-2.263,0.247c-3.168-2.757-6.415-5.483-9.722-8.185
													c2.648-0.735,5.742-0.95,8.117-0.982c1.473-0.019,3.148,0.131,3.433,0.611c0.239,0.402,1.088,0.608,1.893,0.455
													c0.806-0.151,1.268-0.599,1.029-1.002c-0.645-1.088-2.852-1.664-6.216-1.619c-3.829,0.045-7.165,0.483-9.835,1.261
													c-1.611-1.304-3.198-2.619-4.839-3.908c-0.443-0.348-1.383-0.427-2.097-0.174c-0.715,0.252-0.934,0.738-0.491,1.086
													c1.652,1.297,3.25,2.621,4.872,3.934c-0.009,0.004-0.022,0.007-0.031,0.012c-3.571,1.68-5.118,4.416-3.762,6.656
													c1.356,2.239,5.556,3.883,10.214,3.997c2.004,0.051,3.941-0.158,5.828-0.39c3.561,3.121,7.008,6.274,10.369,9.446
													c-3.647,1.783-7.262,2.824-10.744,3.079c-3.514,0.263-7.934-0.47-9.285-2.316c-0.288-0.394-1.157-0.566-1.951-0.394
													c-0.792,0.175-1.2,0.635-0.912,1.027c1.806,2.468,7.181,3.485,11.783,3.259c0.197-0.01,0.393-0.021,0.586-0.035
													c3.964-0.291,7.973-1.409,11.934-3.263c1.699,1.621,3.418,3.238,5.06,4.869c0.272,0.27,0.829,0.409,1.405,0.38
													c0.214-0.01,0.432-0.044,0.636-0.103c0.754-0.218,1.063-0.695,0.69-1.065
													C400.094,683.1,398.242,681.352,396.402,679.601z M386.42,669.515c4.849-0.381,10.707,0.637,12.069,3.004
													c1.214,2.111-1.379,4.284-3.568,5.657c-3.055-2.873-6.173-5.732-9.39-8.563
													C385.827,669.583,386.122,669.538,386.42,669.515z M376.833,668.814c-3.493-0.086-6.642-1.32-7.661-2.998
													c-0.97-1.605,0.063-3.543,2.49-4.811c3.066,2.506,6.073,5.036,9.019,7.589
													C379.363,668.741,378.086,668.845,376.833,668.814z"/>
											</g>
										</g>
									</g>
								</g>
							</g>
						</g>
					</g>
				</g>
				<g>
					<g>
						<g>
							<g>
								<g>
									<path style="fill:#F4F2ED;" d="M428.281,489.137l-4.637-21.96l-4.637,21.96c-2.173,10.293-6.12,19.203-11.312,25.542l0,0
										l0,0c4.979,2.447,8.91,9.03,10.464,17.524l5.485,29.979l5.486-29.979c1.554-8.494,5.485-15.077,10.464-17.524l0,0l0,0
										C434.401,508.341,430.454,499.431,428.281,489.137z"/>
								</g>
							</g>
						</g>
					</g>
				</g>
				<g>
					<g>
						<g>
							<path style="fill:#4C4F32;" d="M757.247,703.831l-25.659,65.812c0,0-12.37,17.91-42.811,19.639
								c-30.451,1.76-61.492-16.542-77.361-27.824c-13.58-9.648-52.788-15.732-72.94-1.311l41.465-55.272
								c0,0,1.389-0.569,3.85-1.314l1.76,5.919l-28.005,36.247c0,0,40.025-10.664,81.161,21.947
								c41.157,32.601,87.031-3.265,87.031-3.265l15.523-42.221l-2.953-4.444C753.566,707.69,757.247,703.831,757.247,703.831z"/>
						</g>
					</g>
					<g>
						<g>
							<path style="fill:#4C4F32;" d="M738.309,717.746l2.953,4.444c0,0-43.634,39.095-84.543,7.246
								c-40.899-31.88-71.168-19.955-71.168-19.955l-1.76-5.919c9.635-2.879,35.652-8.339,58.615,8.091
								c28.799,20.612,56.623,30.659,82.9,14.374C730.377,722.888,734.668,720.141,738.309,717.746z"/>
						</g>
					</g>
					<g>
						<g>
							<path style="fill:#6F7849;" d="M741.262,722.19l-15.523,42.221c0,0-45.874,35.865-87.031,3.265
								c-41.137-32.611-81.161-21.947-81.161-21.947l28.005-36.247c0,0,30.27-11.925,71.168,19.955
								C697.628,761.286,741.262,722.19,741.262,722.19z M693.281,760.428c2.105-3.711,0.212-8.765-4.262-11.312
								c-4.453-2.557-9.787-1.632-11.892,2.079c-2.116,3.691-0.223,8.744,4.251,11.291
								C685.832,765.044,691.165,764.118,693.281,760.428z M664.118,744.172c-3.131-6.236-9.491-9.408-14.204-7.042
								c-4.713,2.366-5.968,9.362-2.837,15.597c3.141,6.257,9.49,9.408,14.204,7.042
								C665.994,757.404,667.259,750.429,664.118,744.172z M633.778,738.507c3.374-2.57,3.591-7.988,0.485-12.071
								c-3.107-4.084-8.382-5.3-11.756-2.73c-3.394,2.58-3.622,7.977-0.515,12.061C625.119,739.839,630.384,741.087,633.778,738.507
								z"/>
						</g>
					</g>
					<g>
						<g>
							<path style="fill:#4C4F32;" d="M689.019,749.116c4.474,2.547,6.367,7.6,4.262,11.312c-2.116,3.69-7.449,4.616-11.902,2.059
								c-4.474-2.547-6.367-7.6-4.251-11.291C679.232,747.484,684.566,746.559,689.019,749.116z"/>
						</g>
					</g>
					<g>
						<g>
							<path style="fill:#4C4F32;" d="M649.914,737.131c4.713-2.366,11.073,0.806,14.204,7.042
								c3.141,6.257,1.876,13.231-2.837,15.597c-4.713,2.366-11.063-0.785-14.204-7.042
								C643.946,746.492,645.201,739.497,649.914,737.131z"/>
						</g>
					</g>
					<g>
						<g>
							<path style="fill:#4C4F32;" d="M634.263,726.435c3.107,4.083,2.889,9.501-0.485,12.071c-3.394,2.58-8.659,1.333-11.786-2.741
								c-3.107-4.084-2.879-9.48,0.515-12.061C625.881,721.135,631.156,722.352,634.263,726.435z"/>
						</g>
					</g>
				</g>
				<g>
					<g>
						<g>
							<path style="fill:#FFCE00;" d="M468.25,730.273c-17.382,0-32.259,6.211-38.17,14.953c-1.778,2.605-2.756,5.46-2.756,8.44
								c0,1.728,0.326,3.406,0.952,5.009c2.755,7.188,11.296,13.149,22.717,16.18c5.235,1.403,11.095,2.179,17.257,2.179
								c19.586,0,35.942-7.864,39.949-18.359c0.627-1.603,0.952-3.281,0.952-5.009C509.15,740.742,490.841,730.273,468.25,730.273z"
								/>
						</g>
						<g>
							<path style="fill:#DBB100;" d="M508.198,758.675c-4.007,10.495-20.362,18.359-39.949,18.359
								c-6.161,0-12.022-0.777-17.257-2.179c-11.421-3.031-19.962-8.992-22.717-16.18c-0.626-1.603-0.952-3.281-0.952-5.009v10.018
								c0,11.12,13.625,20.438,31.859,22.792c2.905,0.376,5.936,0.576,9.066,0.576c22.591,0,40.9-10.469,40.9-23.368v-10.018
								C509.15,755.394,508.825,757.072,508.198,758.675z"/>
						</g>
					</g>
					<g>
						<g>
							<g>
								<g>
									<g>
										<g>
											<g>
												<path style="fill:#CEA600;" d="M483.418,762.352c4.61-2.635,6.561-5.525,5.198-7.896
													c-1.927-3.352-9.596-4.65-15.805-4.153c-0.784,0.061-1.564,0.164-2.345,0.256c-3.283-2.858-6.649-5.684-10.077-8.484
													c2.744-0.762,5.952-0.985,8.414-1.018c1.527-0.02,3.264,0.136,3.558,0.633c0.248,0.417,1.128,0.63,1.962,0.472
													c0.836-0.157,1.314-0.621,1.066-1.039c-0.669-1.128-2.957-1.725-6.443-1.679c-3.969,0.047-7.427,0.501-10.194,1.307
													c-1.67-1.351-3.315-2.715-5.016-4.05c-0.46-0.361-1.434-0.443-2.174-0.18c-0.741,0.261-0.968,0.765-0.509,1.126
													c1.713,1.345,3.369,2.718,5.05,4.078c-0.01,0.005-0.022,0.007-0.032,0.012c-3.702,1.741-5.305,4.578-3.9,6.899
													c1.405,2.321,5.759,4.025,10.587,4.143c2.077,0.053,4.085-0.164,6.041-0.404c3.691,3.235,7.263,6.503,10.748,9.791
													c-3.781,1.848-7.527,2.928-11.137,3.192c-3.642,0.273-8.223-0.487-9.624-2.401c-0.298-0.408-1.2-0.586-2.022-0.409
													c-0.821,0.182-1.244,0.658-0.946,1.065c1.871,2.558,7.443,3.612,12.213,3.378c0.204-0.01,0.407-0.022,0.607-0.037
													c4.108-0.302,8.264-1.46,12.37-3.383c1.761,1.68,3.543,3.357,5.245,5.047c0.283,0.28,0.86,0.424,1.456,0.395
													c0.222-0.011,0.448-0.046,0.659-0.107c0.781-0.226,1.102-0.72,0.715-1.104
													C487.245,765.979,485.325,764.167,483.418,762.352z M473.071,751.897c5.027-0.395,11.098,0.66,12.51,3.114
													c1.258,2.188-1.429,4.441-3.699,5.864c-3.167-2.978-6.398-5.942-9.733-8.876
													C472.456,751.968,472.763,751.922,473.071,751.897z M463.134,751.171c-3.622-0.09-6.885-1.368-7.941-3.108
													c-1.006-1.664,0.065-3.672,2.581-4.987c3.177,2.598,6.295,5.22,9.348,7.867
													C465.757,751.095,464.432,751.203,463.134,751.171z"/>
											</g>
										</g>
									</g>
								</g>
							</g>
						</g>
					</g>
				</g>
				<g>
					<g>
						<g>
							<g>
								<g>
									<path style="fill:#F4F2ED;" d="M531.407,244.943l-6.765-32.038l-6.765,32.038c-3.171,15.017-8.928,28.016-16.504,37.265
										l0,0l0,0c7.263,3.57,12.999,13.174,15.266,25.566l8.003,43.737l8.003-43.737c2.267-12.391,8.002-21.996,15.266-25.566l0,0
										l0,0C540.335,272.959,534.578,259.961,531.407,244.943z"/>
								</g>
							</g>
						</g>
					</g>
				</g>
				<g>
					<g>
						<g>
							<g>
								<path style="fill:#FFCE00;" d="M430.665,393.001c-16.61-6.26-25.006-24.809-18.736-41.447
									c6.259-16.611,24.809-25.006,41.419-18.747c16.611,6.26,25.006,24.809,18.747,41.42
									C465.825,390.865,447.275,399.26,430.665,393.001z"/>
							</g>
						</g>
					</g>
					<g>
						<g>
							<g>
								<g>
									<g>
										<g>
											<g>
												<path style="fill:#BF9A00;" d="M441.587,377.228c3.943,0.082,7.042-1.268,8.417-3.749
													c1.943-3.508-0.033-8.075-2.882-10.566c-0.358-0.315-0.748-0.597-1.131-0.887c1.01-3.751,1.962-7.516,2.869-11.29
													c1.696,0.678,3.141,1.991,4.138,3.106c0.618,0.692,1.177,1.619,0.892,2.144c-0.239,0.44-0.063,1.014,0.393,1.278
													c0.456,0.265,1.019,0.125,1.258-0.316c0.646-1.19,0.225-2.716-1.187-4.296c-1.603-1.803-3.332-3.052-5.073-3.706
													c0.431-1.828,0.883-3.654,1.289-5.485c0.11-0.495-0.208-1.01-0.712-1.148c-0.503-0.14-0.998,0.148-1.109,0.642
													c-0.409,1.843-0.863,3.681-1.298,5.522c-0.007-0.001-0.015-0.004-0.022-0.005c-2.863-0.357-5.783,1.112-7.101,3.574
													c-1.317,2.462-0.975,5.809,0.833,8.14c0.776,1.004,1.743,1.766,2.707,2.485c-1.153,4.234-2.38,8.44-3.658,12.62
													c-2.981-0.311-5.328-1.206-6.965-2.673c-1.656-1.475-2.849-4.192-1.858-6.334c0.212-0.457,0-1.014-0.468-1.256
													c-0.47-0.239-1.021-0.063-1.232,0.392c-1.325,2.863,0.022,6.268,2.091,8.297c0.088,0.086,0.178,0.171,0.269,0.253
													c1.863,1.669,4.435,2.693,7.605,3.096c-0.661,2.127-1.31,4.261-2.002,6.368c-0.114,0.35-0.003,0.729,0.256,0.983
													c0.096,0.094,0.213,0.172,0.346,0.222c0.491,0.186,1.015-0.051,1.172-0.529
													C440.171,381.832,440.876,379.528,441.587,377.228z M445.939,364.276c2.3,2.022,3.842,5.66,2.421,8.228
													c-1.269,2.29-4.144,2.801-6.187,2.859c1.154-3.791,2.269-7.601,3.321-11.436
													C445.64,364.047,445.798,364.153,445.939,364.276z M442.607,359.103c-1.355-1.749-1.612-4.259-0.624-6.105
													c0.945-1.764,2.986-2.834,5.039-2.693c-0.843,3.499-1.727,6.99-2.659,10.47
													C443.703,360.26,443.093,359.73,442.607,359.103z"/>
											</g>
										</g>
									</g>
								</g>
							</g>
						</g>
					</g>
				</g>
				<g>
					<g>
						<g>
							<g>
								<path style="fill:#CBC6BD;" d="M631.742,282.178c-17.623,2.128-33.642-10.44-35.773-28.091
									c-2.128-17.623,10.44-33.642,28.063-35.77c17.623-2.128,33.642,10.44,35.77,28.063
									C661.932,264.031,649.365,280.05,631.742,282.178z"/>
							</g>
						</g>
					</g>
					<g>
						<g>
							<g>
								<g>
									<g>
										<g>
											<g>
												<path style="fill:#989C9F;" d="M634.136,263.143c3.534-1.75,5.658-4.379,5.73-7.215c0.101-4.009-3.762-7.145-7.44-8.037
													c-0.463-0.114-0.94-0.184-1.413-0.264c-0.838-3.793-1.734-7.572-2.674-11.338c1.818-0.183,3.705,0.314,5.105,0.842
													c0.868,0.328,1.792,0.892,1.782,1.488c-0.008,0.501,0.412,0.929,0.939,0.951c0.527,0.025,0.961-0.36,0.969-0.861
													c0.023-1.354-1.056-2.512-3.038-3.261c-2.255-0.858-4.366-1.166-6.212-0.941c-0.463-1.821-0.907-3.649-1.393-5.46
													c-0.131-0.49-0.651-0.8-1.161-0.689c-0.51,0.108-0.817,0.592-0.686,1.082c0.489,1.823,0.936,3.663,1.402,5.496
													c-0.007,0.003-0.015,0.003-0.022,0.006c-2.705,1.007-4.615,3.659-4.645,6.452c-0.03,2.792,1.821,5.602,4.501,6.833
													c1.152,0.531,2.362,0.76,3.55,0.952c0.934,4.288,1.79,8.584,2.59,12.882c-2.787,1.102-5.282,1.394-7.412,0.849
													c-2.15-0.543-4.464-2.4-4.576-4.758c-0.023-0.503-0.469-0.899-0.995-0.898c-0.527,0.005-0.935,0.416-0.911,0.917
													c0.148,3.151,2.916,5.548,5.689,6.391c0.118,0.036,0.237,0.069,0.356,0.099c2.423,0.619,5.177,0.337,8.175-0.77
													c0.397,2.191,0.808,4.384,1.169,6.572c0.06,0.363,0.334,0.648,0.681,0.753c0.129,0.039,0.268,0.054,0.41,0.037
													c0.521-0.062,0.876-0.515,0.795-1.011C635.009,267.879,634.568,265.511,634.136,263.143z M632.008,249.646
													c2.974,0.73,6.024,3.243,5.95,6.177c-0.067,2.617-2.38,4.4-4.164,5.395c-0.73-3.895-1.501-7.789-2.342-11.675
													C631.637,249.581,631.826,249.601,632.008,249.646z M626.662,246.599c-2.01-0.924-3.398-3.031-3.376-5.125
													c0.023-2.001,1.338-3.894,3.223-4.718c0.871,3.493,1.699,6.997,2.483,10.514
													C628.168,247.118,627.383,246.931,626.662,246.599z"/>
											</g>
										</g>
									</g>
								</g>
							</g>
						</g>
					</g>
				</g>
				<g>
					<g>
						<g>
							<g>
								<path style="fill:#CBC6BD;" d="M755.476,502.563c-14.168-0.171-25.52-11.801-25.349-25.992
									c0.171-14.168,11.801-25.521,25.969-25.35c14.168,0.171,25.52,11.801,25.349,25.969
									C781.274,491.381,769.644,502.734,755.476,502.563z"/>
							</g>
						</g>
					</g>
					<g>
						<g>
							<g>
								<g>
									<g>
										<g>
											<g>
												<path style="fill:#989C9F;" d="M759.374,487.754c2.98-1.013,4.938-2.87,5.293-5.106
													c0.502-3.161-2.225-6.049-5.041-7.142c-0.355-0.139-0.724-0.244-1.09-0.358c-0.264-3.09-0.576-6.174-0.923-9.252
													c1.458,0.046,2.899,0.638,3.951,1.203c0.652,0.351,1.324,0.894,1.253,1.365c-0.059,0.395,0.229,0.778,0.643,0.852
													c0.414,0.075,0.798-0.184,0.857-0.579c0.161-1.069-0.571-2.099-2.06-2.9c-1.694-0.916-3.331-1.382-4.816-1.398
													c-0.174-1.489-0.333-2.983-0.527-4.466c-0.052-0.401-0.431-0.701-0.847-0.668c-0.415,0.032-0.709,0.383-0.657,0.784
													c0.195,1.494,0.355,2.997,0.531,4.497c-0.006,0.001-0.012,0.001-0.018,0.002c-2.246,0.512-4.036,2.41-4.354,4.616
													c-0.318,2.206,0.851,4.624,2.842,5.88c0.856,0.542,1.789,0.85,2.709,1.127c0.288,3.491,0.513,6.981,0.693,10.465
													c-2.321,0.579-4.326,0.547-5.953-0.108c-1.645-0.656-3.28-2.369-3.12-4.246c0.034-0.4-0.276-0.76-0.693-0.815
													c-0.418-0.051-0.784,0.231-0.817,0.63c-0.214,2.509,1.724,4.697,3.829,5.655c0.089,0.041,0.18,0.08,0.271,0.116
													c1.853,0.745,4.061,0.812,6.549,0.251c0.084,1.775,0.178,3.553,0.233,5.323c0.009,0.293,0.197,0.548,0.46,0.668
													c0.098,0.045,0.207,0.071,0.32,0.072c0.419,0.006,0.748-0.315,0.735-0.716
													C759.566,491.593,759.467,489.673,759.374,487.754z M759.111,476.85c2.276,0.89,4.425,3.199,4.058,5.514
													c-0.328,2.064-2.346,3.231-3.863,3.831c-0.168-3.159-0.368-6.321-0.624-9.485
													C758.823,476.76,758.971,476.796,759.111,476.85z M755.201,473.877c-1.493-0.943-2.369-2.756-2.132-4.411
													c0.229-1.581,1.469-2.94,3.047-3.393c0.321,2.855,0.608,5.715,0.858,8.58
													C756.338,474.446,755.737,474.215,755.201,473.877z"/>
											</g>
										</g>
									</g>
								</g>
							</g>
						</g>
					</g>
				</g>
				<g>
					<g>
						<g>
							<g>
								<g>
									<path style="fill:#F4F2ED;" d="M743.047,388.546l-5.2-24.629l-5.201,24.629c-2.437,11.544-6.863,21.537-12.687,28.647l0,0
										l0,0c5.583,2.744,9.992,10.128,11.735,19.653l6.152,33.623l6.152-33.623c1.743-9.525,6.152-16.909,11.735-19.653l0,0l0,0
										C749.91,410.083,745.484,400.09,743.047,388.546z"/>
								</g>
							</g>
						</g>
					</g>
				</g>
			</g>
			<g>
				<g>
					<g>
						<g>
							<g>
								<g>
									<g>
										<path style="fill:#353333;" d="M586.56,570.383c15.906-2.667,27.336-10.444,30.975-21.462
											c5.143-15.572-6.267-32.427-19.608-40.273c-1.679-0.996-3.462-1.832-5.22-2.707c1.209-15.842,2.175-31.695,2.955-47.55
											c7.331,1.437,14.134,5.614,18.989,9.341c3.01,2.313,5.959,5.613,5.214,7.937c-0.625,1.949,0.516,4.124,2.549,4.836
											c2.033,0.72,4.188-0.272,4.815-2.225c1.692-5.272-1.159-11.085-8.032-16.364c-7.81-6.027-15.708-9.735-23.204-11.039
											c0.345-7.675,0.771-15.357,1.013-23.022c0.066-2.071-1.604-3.901-3.731-4.073c-2.127-0.18-3.901,1.353-3.967,3.424
											c-0.245,7.717-0.673,15.45-1.021,23.178c-0.03,0.002-0.063-0.007-0.093-0.005c-11.779,0.739-22.396,8.86-25.822,19.758
											c-3.425,10.894,0.494,24.087,9.53,32.078c3.882,3.445,8.345,5.774,12.768,7.931c-1.419,17.892-3.155,35.725-5.116,53.496
											c-12.214,1.014-22.328-0.798-30.02-5.451c-7.775-4.671-14.634-14.682-12.278-24.045c0.504-1.996-0.771-4.073-2.835-4.693
											c-2.07-0.602-4.152,0.522-4.652,2.512c-3.151,12.512,4.848,25.173,14.705,31.755c0.42,0.281,0.847,0.553,1.273,0.811
											c8.755,5.292,19.869,7.45,32.913,6.665c-1.039,9.049-2.029,18.117-3.206,27.112c-0.195,1.491,0.542,2.933,1.775,3.755
											c0.459,0.306,0.987,0.529,1.56,0.63c2.112,0.374,4.041-0.978,4.308-3.018C584.367,589.956,585.449,580.164,586.56,570.383
											z M594.211,515.026c10.78,6.378,19.741,19.826,15.979,31.227c-3.36,10.168-14.527,14.406-22.691,16.191
											c1.755-16.112,3.346-32.27,4.658-48.479C592.834,514.33,593.55,514.635,594.211,515.026z M576.892,496.766
											c-6.775-5.997-9.711-15.89-7.148-24.06c2.458-7.806,9.849-13.658,18.204-14.652c-0.727,14.704-1.632,29.403-2.731,44.097
											C582.172,500.584,579.321,498.919,576.892,496.766z"/>
									</g>
								</g>
							</g>
						</g>
					</g>
				</g>
			</g>
		</g>
		<g>
			<path style="fill:#ffa90a;" d="M295.069,764.529c1.377,7.455,2.754,14.91,4.131,22.365c0.638,3.454,9.287,1.314,8.618-2.309
				c-1.377-7.455-2.754-14.91-4.131-22.365C303.049,758.766,294.4,760.906,295.069,764.529L295.069,764.529z"/>
		</g>
		<g>
			<path style="fill:#ffa90a;" d="M320.203,800.243c0.991,6.939,1.983,13.878,2.974,20.818c0.42,2.939,9.084,0.953,8.618-2.309
				c-0.991-6.939-1.983-13.878-2.974-20.818C328.401,794.995,319.737,796.981,320.203,800.243L320.203,800.243z"/>
		</g>
		<g>
			<path style="fill:#ffa90a;" d="M367.936,826.997c0.975,12.393,1.95,24.785,2.925,37.178c0.109,1.388,8.792-0.102,8.618-2.309
				c-0.975-12.393-1.95-24.785-2.926-37.178C376.445,823.3,367.763,824.789,367.936,826.997L367.936,826.997z"/>
		</g>
		<g>
			<path style="fill:#ffa90a;" d="M423.971,856.779c0.717,7.414,1.434,14.827,2.151,22.24c0.399,4.125,9.035,2.005,8.618-2.309
				c-0.717-7.413-1.434-14.827-2.151-22.24C432.19,850.345,423.554,852.465,423.971,856.779L423.971,856.779z"/>
		</g>
		<g>
			<path style="fill:#ffa90a;" d="M477.893,864.171c1.541,8.912,3.082,17.825,4.624,26.737c0.448,2.589,9.117,0.577,8.618-2.309
				c-1.541-8.912-3.082-17.825-4.623-26.737C486.063,859.273,477.394,861.285,477.893,864.171L477.893,864.171z"/>
		</g>
		<g>
			<path style="fill:#ffa90a;" d="M552.205,870.127c0.989,8.922,1.977,17.844,2.965,26.766c0.369,3.332,9.023,1.343,8.618-2.309
				c-0.988-8.922-1.977-17.844-2.965-26.767C560.454,864.486,551.8,866.475,552.205,870.127L552.205,870.127z"/>
		</g>
		<g>
			<path style="fill:#ffa90a;" d="M797.712,785.351c1.01,9.295,0.927,18.511-0.32,27.783c-0.341,2.54,8.226,0.955,8.539-1.374
				c1.287-9.576,1.443-19.107,0.399-28.718C806.108,781.003,797.428,782.734,797.712,785.351L797.712,785.351z"/>
		</g>
		<g>
			<path style="fill:#ffa90a;" d="M818.333,759.46c0,5.948,0,11.896,0,17.844c0,3.668,8.628,1.889,8.628-1.039
				c0-5.948,0-11.896,0-17.844C826.961,754.753,818.333,756.532,818.333,759.46L818.333,759.46z"/>
		</g>
		<g>
			<path style="fill:#ffa90a;" d="M620.571,865.67c0.161,8.537,1.149,16.938,2.974,25.278c0.337,1.543,9.007-0.529,8.618-2.309
				c-1.825-8.341-2.813-16.742-2.974-25.278C629.169,862.267,620.53,863.461,620.571,865.67L620.571,865.67z"/>
		</g>
		<g>
			<path style="fill:#ffa90a;" d="M664.041,865.582c1.38,5.479,2.76,10.958,4.14,16.438c0.523,2.075,9.162-0.146,8.618-2.309
				c-1.38-5.479-2.76-10.958-4.14-16.438C672.136,861.198,663.497,863.419,664.041,865.582L664.041,865.582z"/>
		</g>
		<g>
			<path style="fill:#ffa90a;" d="M721.685,840.392c2.255,9.808,3.739,19.701,4.461,29.739c0.283,3.934,8.919,1.877,8.618-2.309
				c-0.722-10.038-2.206-19.931-4.461-29.739C729.382,834.074,720.75,836.325,721.685,840.392L721.685,840.392z"/>
		</g>
		<g>
			<path style="fill:#ffa90a;" d="M766.062,816.66c-0.693,0.76-1.385,1.52-2.078,2.28c-1.752-0.05-3.504-0.1-5.256-0.15
				c-0.924-0.505-0.332-0.992-0.359,0.082c-0.018,0.712,0.368,1.632,0.505,2.338c0.449,2.313,0.795,4.648,1.142,6.978
				c0.606,4.064,1.075,8.16,1.817,12.203c0.78,4.246,9.414,2.026,8.618-2.309c-1.168-6.363-1.727-12.827-2.96-19.181
				c-0.351-1.811-0.604-4.109-2.178-5.299c-3.146-2.379-7.273,0.33-8.012,3.602C756.3,821.634,765.143,820.727,766.062,816.66
				L766.062,816.66z"/>
		</g>
	</g>
</g>
</svg>
